<svg xmlns="http://www.w3.org/2000/svg" width="1280" height="720" viewBox="0 0 1280 720">
<title>Ironwake, the Tollgate, turn 1, seed 113: the look (issue 510)</title>
<style>
    .t-plain{fill:#748A66}
    .t-road{fill:#B3AE9C}
    .t-forest{fill:#3E5A45}
    .t-hill{fill:#B89E6C}
    .t-mountain{fill:#77767C}
    .t-water{fill:#41667F}
    .t-fort{fill:#9FB0C4}
    .t-wall{fill:#23272E}
    .t-throne{fill:#E4E7EA}
    .t-fire{fill:#943C0C}
    .player{fill:#E8A33D}
    .player-deep{fill:#9A6420}
    .enemy{fill:#2F3742}
    .enemy-bone{fill:#E6E0D0}
    .glyph-p{fill:none;stroke:#15181D;stroke-width:2.6;stroke-linecap:round;stroke-linejoin:round}
    .glyph-pf{fill:#15181D}
    .glyph-e{fill:none;stroke:#E6E0D0;stroke-width:2.6;stroke-linecap:round;stroke-linejoin:round}
    .glyph-ef{fill:#E6E0D0}
    .rim-e{fill:none;stroke:#E6E0D0;stroke-width:1.6}
    .ring-lost{fill:none;stroke:#5A6270;stroke-width:1.5}
    .m-selected{fill:#F6D38A} .ms-selected{fill:none;stroke:#F6D38A}
    .m-reach{fill:#BFD9EA} .ms-reach{fill:none;stroke:#BFD9EA}
    .m-threat{fill:#EDE6D6} .ms-threat{fill:none;stroke:#EDE6D6}
    .m-struck{fill:#FFFFFF} .ms-struck{fill:none;stroke:#FFFFFF}
    .u-ink{fill:#15181D}
    .u-panel{fill:#1E232A}
    .u-text{fill:#E9ECEF}
    .u-muted{fill:#8C96A3}
    .u-lost{fill:#5A6270}
    .ui{font-family:Inter, 'DejaVu Sans', sans-serif;font-variant-numeric:tabular-nums} .mono{font-family:'JetBrains Mono', 'DejaVu Sans Mono', monospace}
    .hatch-line{stroke:#943C0C;stroke-width:3}
  </style>
<rect class="u-ink" width="1280" height="720"/>
<text class="ui u-text" x="24" y="38" font-size="22" font-weight="700" text-anchor="start" >The Tollgate</text>
<rect class="u-panel" x="200" y="16" width="126" height="30" rx="15"/>
<text class="ui u-muted" x="214" y="36" font-size="10" font-weight="700" text-anchor="start" letter-spacing="1.5">TURN</text>
<text class="ui u-text" x="254" y="36" font-size="14" font-weight="700" text-anchor="start" >1 / 10</text>
<rect class="u-panel" x="336" y="16" width="125" height="30" rx="15"/>
<text class="ui u-muted" x="350" y="36" font-size="10" font-weight="700" text-anchor="start" letter-spacing="1.5">PHASE</text>
<text class="ui player" x="398" y="36" font-size="14" font-weight="700" text-anchor="start" >Yours</text>
<rect class="u-panel" x="471" y="16" width="198" height="30" rx="15"/>
<text class="ui u-muted" x="485" y="36" font-size="10" font-weight="700" text-anchor="start" letter-spacing="1.5">GOAL</text>
<text class="ui u-text" x="525" y="36" font-size="14" font-weight="700" text-anchor="start" >Seize the gate</text>
<rect class="u-panel" x="679" y="16" width="97" height="30" rx="15"/>
<text class="ui u-muted" x="693" y="36" font-size="10" font-weight="700" text-anchor="start" letter-spacing="1.5">RECALL</text>
<text class="ui u-text" x="749" y="36" font-size="14" font-weight="700" text-anchor="start" >3</text>
<rect class="u-ink" x="18" y="58" width="684" height="588" rx="6"/><rect class="t-mountain" x="24" y="64" width="48" height="48"/><rect class="t-mountain" x="72" y="64" width="48" height="48"/><rect class="t-wall" x="120" y="64" width="48" height="48"/><rect class="t-wall" x="168" y="64" width="48" height="48"/><rect class="t-wall" x="216" y="64" width="48" height="48"/><rect class="t-wall" x="264" y="64" width="48" height="48"/><rect class="t-wall" x="312" y="64" width="48" height="48"/><rect class="t-wall" x="360" y="64" width="48" height="48"/><rect class="t-wall" x="408" y="64" width="48" height="48"/><rect class="t-wall" x="456" y="64" width="48" height="48"/><rect class="t-wall" x="504" y="64" width="48" height="48"/><rect class="t-wall" x="552" y="64" width="48" height="48"/><rect class="t-wall" x="600" y="64" width="48" height="48"/><rect class="t-wall" x="648" y="64" width="48" height="48"/><rect class="t-mountain" x="24" y="112" width="48" height="48"/><rect class="t-mountain" x="72" y="112" width="48" height="48"/><rect class="t-wall" x="120" y="112" width="48" height="48"/><rect class="t-plain" x="168" y="112" width="48" height="48"/><rect class="t-plain" x="216" y="112" width="48" height="48"/><rect class="t-plain" x="264" y="112" width="48" height="48"/><rect class="t-plain" x="312" y="112" width="48" height="48"/><rect class="t-throne" x="360" y="112" width="48" height="48"/><rect class="t-plain" x="408" y="112" width="48" height="48"/><rect class="t-plain" x="456" y="112" width="48" height="48"/><rect class="t-plain" x="504" y="112" width="48" height="48"/><rect class="t-plain" x="552" y="112" width="48" height="48"/><rect class="t-plain" x="600" y="112" width="48" height="48"/><rect class="t-wall" x="648" y="112" width="48" height="48"/><rect class="t-mountain" x="24" y="160" width="48" height="48"/><rect class="t-mountain" x="72" y="160" width="48" height="48"/><rect class="t-wall" x="120" y="160" width="48" height="48"/><rect class="t-plain" x="168" y="160" width="48" height="48"/><rect class="t-plain" x="216" y="160" width="48" height="48"/><rect class="t-plain" x="264" y="160" width="48" height="48"/><rect class="t-plain" x="312" y="160" width="48" height="48"/><rect class="t-plain" x="360" y="160" width="48" height="48"/><rect class="t-plain" x="408" y="160" width="48" height="48"/><rect class="t-plain" x="456" y="160" width="48" height="48"/><rect class="t-plain" x="504" y="160" width="48" height="48"/><rect class="t-plain" x="552" y="160" width="48" height="48"/><rect class="t-plain" x="600" y="160" width="48" height="48"/><rect class="t-wall" x="648" y="160" width="48" height="48"/><rect class="t-mountain" x="24" y="208" width="48" height="48"/><rect class="t-mountain" x="72" y="208" width="48" height="48"/><rect class="t-wall" x="120" y="208" width="48" height="48"/><rect class="t-wall" x="168" y="208" width="48" height="48"/><rect class="t-wall" x="216" y="208" width="48" height="48"/><rect class="t-wall" x="264" y="208" width="48" height="48"/><rect class="t-plain" x="312" y="208" width="48" height="48"/><rect class="t-wall" x="360" y="208" width="48" height="48"/><rect class="t-wall" x="408" y="208" width="48" height="48"/><rect class="t-wall" x="456" y="208" width="48" height="48"/><rect class="t-wall" x="504" y="208" width="48" height="48"/><rect class="t-wall" x="552" y="208" width="48" height="48"/><rect class="t-wall" x="600" y="208" width="48" height="48"/><rect class="t-wall" x="648" y="208" width="48" height="48"/><rect class="t-plain" x="24" y="256" width="48" height="48"/><rect class="t-plain" x="72" y="256" width="48" height="48"/><rect class="t-plain" x="120" y="256" width="48" height="48"/><rect class="t-plain" x="168" y="256" width="48" height="48"/><rect class="t-plain" x="216" y="256" width="48" height="48"/><rect class="t-plain" x="264" y="256" width="48" height="48"/><rect class="t-forest" x="312" y="256" width="48" height="48"/><rect class="t-plain" x="360" y="256" width="48" height="48"/><rect class="t-plain" x="408" y="256" width="48" height="48"/><rect class="t-plain" x="456" y="256" width="48" height="48"/><rect class="t-plain" x="504" y="256" width="48" height="48"/><rect class="t-plain" x="552" y="256" width="48" height="48"/><rect class="t-plain" x="600" y="256" width="48" height="48"/><rect class="t-plain" x="648" y="256" width="48" height="48"/><rect class="t-plain" x="24" y="304" width="48" height="48"/><rect class="t-plain" x="72" y="304" width="48" height="48"/><rect class="t-plain" x="120" y="304" width="48" height="48"/><rect class="t-plain" x="168" y="304" width="48" height="48"/><rect class="t-hill" x="216" y="304" width="48" height="48"/><rect class="t-forest" x="264" y="304" width="48" height="48"/><rect class="t-forest" x="312" y="304" width="48" height="48"/><rect class="t-forest" x="360" y="304" width="48" height="48"/><rect class="t-plain" x="408" y="304" width="48" height="48"/><rect class="t-plain" x="456" y="304" width="48" height="48"/><rect class="t-plain" x="504" y="304" width="48" height="48"/><rect class="t-plain" x="552" y="304" width="48" height="48"/><rect class="t-plain" x="600" y="304" width="48" height="48"/><rect class="t-plain" x="648" y="304" width="48" height="48"/><rect class="t-plain" x="24" y="352" width="48" height="48"/><rect class="t-plain" x="72" y="352" width="48" height="48"/><rect class="t-plain" x="120" y="352" width="48" height="48"/><rect class="t-plain" x="168" y="352" width="48" height="48"/><rect class="t-plain" x="216" y="352" width="48" height="48"/><rect class="t-forest" x="264" y="352" width="48" height="48"/><rect class="t-plain" x="312" y="352" width="48" height="48"/><rect class="t-plain" x="360" y="352" width="48" height="48"/><rect class="t-plain" x="408" y="352" width="48" height="48"/><rect class="t-plain" x="456" y="352" width="48" height="48"/><rect class="t-plain" x="504" y="352" width="48" height="48"/><rect class="t-plain" x="552" y="352" width="48" height="48"/><rect class="t-plain" x="600" y="352" width="48" height="48"/><rect class="t-plain" x="648" y="352" width="48" height="48"/><rect class="t-plain" x="24" y="400" width="48" height="48"/><rect class="t-plain" x="72" y="400" width="48" height="48"/><rect class="t-plain" x="120" y="400" width="48" height="48"/><rect class="t-plain" x="168" y="400" width="48" height="48"/><rect class="t-plain" x="216" y="400" width="48" height="48"/><rect class="t-plain" x="264" y="400" width="48" height="48"/><rect class="t-plain" x="312" y="400" width="48" height="48"/><rect class="t-plain" x="360" y="400" width="48" height="48"/><rect class="t-plain" x="408" y="400" width="48" height="48"/><rect class="t-plain" x="456" y="400" width="48" height="48"/><rect class="t-fort" x="504" y="400" width="48" height="48"/><rect class="t-plain" x="552" y="400" width="48" height="48"/><rect class="t-plain" x="600" y="400" width="48" height="48"/><rect class="t-plain" x="648" y="400" width="48" height="48"/><rect class="t-plain" x="24" y="448" width="48" height="48"/><rect class="t-plain" x="72" y="448" width="48" height="48"/><rect class="t-plain" x="120" y="448" width="48" height="48"/><rect class="t-plain" x="168" y="448" width="48" height="48"/><rect class="t-plain" x="216" y="448" width="48" height="48"/><rect class="t-plain" x="264" y="448" width="48" height="48"/><rect class="t-water" x="312" y="448" width="48" height="48"/><rect class="t-water" x="360" y="448" width="48" height="48"/><rect class="t-plain" x="408" y="448" width="48" height="48"/><rect class="t-plain" x="456" y="448" width="48" height="48"/><rect class="t-plain" x="504" y="448" width="48" height="48"/><rect class="t-plain" x="552" y="448" width="48" height="48"/><rect class="t-plain" x="600" y="448" width="48" height="48"/><rect class="t-plain" x="648" y="448" width="48" height="48"/><rect class="t-plain" x="24" y="496" width="48" height="48"/><rect class="t-plain" x="72" y="496" width="48" height="48"/><rect class="t-plain" x="120" y="496" width="48" height="48"/><rect class="t-plain" x="168" y="496" width="48" height="48"/><rect class="t-plain" x="216" y="496" width="48" height="48"/><rect class="t-water" x="264" y="496" width="48" height="48"/><rect class="t-water" x="312" y="496" width="48" height="48"/><rect class="t-water" x="360" y="496" width="48" height="48"/><rect class="t-water" x="408" y="496" width="48" height="48"/><rect class="t-plain" x="456" y="496" width="48" height="48"/><rect class="t-plain" x="504" y="496" width="48" height="48"/><rect class="t-plain" x="552" y="496" width="48" height="48"/><rect class="t-plain" x="600" y="496" width="48" height="48"/><rect class="t-plain" x="648" y="496" width="48" height="48"/><rect class="t-plain" x="24" y="544" width="48" height="48"/><rect class="t-plain" x="72" y="544" width="48" height="48"/><rect class="t-plain" x="120" y="544" width="48" height="48"/><rect class="t-plain" x="168" y="544" width="48" height="48"/><rect class="t-plain" x="216" y="544" width="48" height="48"/><rect class="t-plain" x="264" y="544" width="48" height="48"/><rect class="t-plain" x="312" y="544" width="48" height="48"/><rect class="t-plain" x="360" y="544" width="48" height="48"/><rect class="t-plain" x="408" y="544" width="48" height="48"/><rect class="t-plain" x="456" y="544" width="48" height="48"/><rect class="t-plain" x="504" y="544" width="48" height="48"/><rect class="t-plain" x="552" y="544" width="48" height="48"/><rect class="t-plain" x="600" y="544" width="48" height="48"/><rect class="t-plain" x="648" y="544" width="48" height="48"/><rect class="t-plain" x="24" y="592" width="48" height="48"/><rect class="t-plain" x="72" y="592" width="48" height="48"/><rect class="t-plain" x="120" y="592" width="48" height="48"/><rect class="t-plain" x="168" y="592" width="48" height="48"/><rect class="t-plain" x="216" y="592" width="48" height="48"/><rect class="t-plain" x="264" y="592" width="48" height="48"/><rect class="t-plain" x="312" y="592" width="48" height="48"/><rect class="t-plain" x="360" y="592" width="48" height="48"/><rect class="t-plain" x="408" y="592" width="48" height="48"/><rect class="t-plain" x="456" y="592" width="48" height="48"/><rect class="t-plain" x="504" y="592" width="48" height="48"/><rect class="t-plain" x="552" y="592" width="48" height="48"/><rect class="t-plain" x="600" y="592" width="48" height="48"/><rect class="t-plain" x="648" y="592" width="48" height="48"/><path class="u-ink" opacity="0.3" d="M30 100 L44 76 L52 88 L56 82 L64 100 Z"/><path class="u-ink" opacity="0.3" d="M78 100 L92 76 L100 88 L104 82 L112 100 Z"/><path class="t-mountain" opacity="0.35" d="M120 86 H168 M142 64 V86 M131 86 V112" stroke="#77767C" stroke-width="1"/><path class="t-mountain" opacity="0.35" d="M168 86 H216 M190 64 V86 M179 86 V112" stroke="#77767C" stroke-width="1"/><path class="t-mountain" opacity="0.35" d="M216 86 H264 M238 64 V86 M227 86 V112" stroke="#77767C" stroke-width="1"/><path class="t-mountain" opacity="0.35" d="M264 86 H312 M286 64 V86 M275 86 V112" stroke="#77767C" stroke-width="1"/><path class="t-mountain" opacity="0.35" d="M312 86 H360 M334 64 V86 M323 86 V112" stroke="#77767C" stroke-width="1"/><path class="t-mountain" opacity="0.35" d="M360 86 H408 M382 64 V86 M371 86 V112" stroke="#77767C" stroke-width="1"/><path class="t-mountain" opacity="0.35" d="M408 86 H456 M430 64 V86 M419 86 V112" stroke="#77767C" stroke-width="1"/><path class="t-mountain" opacity="0.35" d="M456 86 H504 M478 64 V86 M467 86 V112" stroke="#77767C" stroke-width="1"/><path class="t-mountain" opacity="0.35" d="M504 86 H552 M526 64 V86 M515 86 V112" stroke="#77767C" stroke-width="1"/><path class="t-mountain" opacity="0.35" d="M552 86 H600 M574 64 V86 M563 86 V112" stroke="#77767C" stroke-width="1"/><path class="t-mountain" opacity="0.35" d="M600 86 H648 M622 64 V86 M611 86 V112" stroke="#77767C" stroke-width="1"/><path class="t-mountain" opacity="0.35" d="M648 86 H696 M670 64 V86 M659 86 V112" stroke="#77767C" stroke-width="1"/><path class="u-ink" opacity="0.3" d="M30 148 L44 124 L52 136 L56 130 L64 148 Z"/><path class="u-ink" opacity="0.3" d="M78 148 L92 124 L100 136 L104 130 L112 148 Z"/><path class="t-mountain" opacity="0.35" d="M120 134 H168 M142 112 V134 M131 134 V160" stroke="#77767C" stroke-width="1"/><path class="u-ink" opacity="0.35" d="M368 152 V122 H400 V152 H393 V130 H375 V152 Z"/><path class="t-mountain" opacity="0.35" d="M648 134 H696 M670 112 V134 M659 134 V160" stroke="#77767C" stroke-width="1"/><path class="u-ink" opacity="0.3" d="M30 196 L44 172 L52 184 L56 178 L64 196 Z"/><path class="u-ink" opacity="0.3" d="M78 196 L92 172 L100 184 L104 178 L112 196 Z"/><path class="t-mountain" opacity="0.35" d="M120 182 H168 M142 160 V182 M131 182 V208" stroke="#77767C" stroke-width="1"/><path class="t-mountain" opacity="0.35" d="M648 182 H696 M670 160 V182 M659 182 V208" stroke="#77767C" stroke-width="1"/><path class="u-ink" opacity="0.3" d="M30 244 L44 220 L52 232 L56 226 L64 244 Z"/><path class="u-ink" opacity="0.3" d="M78 244 L92 220 L100 232 L104 226 L112 244 Z"/><path class="t-mountain" opacity="0.35" d="M120 230 H168 M142 208 V230 M131 230 V256" stroke="#77767C" stroke-width="1"/><path class="t-mountain" opacity="0.35" d="M168 230 H216 M190 208 V230 M179 230 V256" stroke="#77767C" stroke-width="1"/><path class="t-mountain" opacity="0.35" d="M216 230 H264 M238 208 V230 M227 230 V256" stroke="#77767C" stroke-width="1"/><path class="t-mountain" opacity="0.35" d="M264 230 H312 M286 208 V230 M275 230 V256" stroke="#77767C" stroke-width="1"/><path class="t-mountain" opacity="0.35" d="M360 230 H408 M382 208 V230 M371 230 V256" stroke="#77767C" stroke-width="1"/><path class="t-mountain" opacity="0.35" d="M408 230 H456 M430 208 V230 M419 230 V256" stroke="#77767C" stroke-width="1"/><path class="t-mountain" opacity="0.35" d="M456 230 H504 M478 208 V230 M467 230 V256" stroke="#77767C" stroke-width="1"/><path class="t-mountain" opacity="0.35" d="M504 230 H552 M526 208 V230 M515 230 V256" stroke="#77767C" stroke-width="1"/><path class="t-mountain" opacity="0.35" d="M552 230 H600 M574 208 V230 M563 230 V256" stroke="#77767C" stroke-width="1"/><path class="t-mountain" opacity="0.35" d="M600 230 H648 M622 208 V230 M611 230 V256" stroke="#77767C" stroke-width="1"/><path class="t-mountain" opacity="0.35" d="M648 230 H696 M670 208 V230 M659 230 V256" stroke="#77767C" stroke-width="1"/><path class="u-ink" opacity="0.35" d="M325 270 L332 282 L318 282 Z"/><path class="u-ink" opacity="0.35" d="M340 264 L347 276 L333 276 Z"/><path class="u-ink" opacity="0.35" d="M334 278 L341 290 L327 290 Z"/><path class="u-ink" opacity="0.25" d="M222 338 Q238 314 254 338 Z"/><path class="u-ink" opacity="0.35" d="M277 318 L284 330 L270 330 Z"/><path class="u-ink" opacity="0.35" d="M292 312 L299 324 L285 324 Z"/><path class="u-ink" opacity="0.35" d="M286 326 L293 338 L279 338 Z"/><path class="u-ink" opacity="0.35" d="M325 318 L332 330 L318 330 Z"/><path class="u-ink" opacity="0.35" d="M340 312 L347 324 L333 324 Z"/><path class="u-ink" opacity="0.35" d="M334 326 L341 338 L327 338 Z"/><path class="u-ink" opacity="0.35" d="M373 318 L380 330 L366 330 Z"/><path class="u-ink" opacity="0.35" d="M388 312 L395 324 L381 324 Z"/><path class="u-ink" opacity="0.35" d="M382 326 L389 338 L375 338 Z"/><path class="u-ink" opacity="0.35" d="M277 366 L284 378 L270 378 Z"/><path class="u-ink" opacity="0.35" d="M292 360 L299 372 L285 372 Z"/><path class="u-ink" opacity="0.35" d="M286 374 L293 386 L279 386 Z"/><path class="u-ink" opacity="0.3" d="M512 436 V414 h6 v5 h5 v-5 h6 v5 h5 v-5 h6 V436 Z"/><path class="ms-reach" opacity="0.35" stroke-width="1.5" d="M320 463 q5 -4 10 0 t10 0 t10 0"/><path class="ms-reach" opacity="0.35" stroke-width="1.5" d="M320 477 q5 -4 10 0 t10 0 t10 0"/><path class="ms-reach" opacity="0.35" stroke-width="1.5" d="M368 463 q5 -4 10 0 t10 0 t10 0"/><path class="ms-reach" opacity="0.35" stroke-width="1.5" d="M368 477 q5 -4 10 0 t10 0 t10 0"/><path class="ms-reach" opacity="0.35" stroke-width="1.5" d="M272 511 q5 -4 10 0 t10 0 t10 0"/><path class="ms-reach" opacity="0.35" stroke-width="1.5" d="M272 525 q5 -4 10 0 t10 0 t10 0"/><path class="ms-reach" opacity="0.35" stroke-width="1.5" d="M320 511 q5 -4 10 0 t10 0 t10 0"/><path class="ms-reach" opacity="0.35" stroke-width="1.5" d="M320 525 q5 -4 10 0 t10 0 t10 0"/><path class="ms-reach" opacity="0.35" stroke-width="1.5" d="M368 511 q5 -4 10 0 t10 0 t10 0"/><path class="ms-reach" opacity="0.35" stroke-width="1.5" d="M368 525 q5 -4 10 0 t10 0 t10 0"/><path class="ms-reach" opacity="0.35" stroke-width="1.5" d="M416 511 q5 -4 10 0 t10 0 t10 0"/><path class="ms-reach" opacity="0.35" stroke-width="1.5" d="M416 525 q5 -4 10 0 t10 0 t10 0"/><line x1="24" y1="64" x2="24" y2="640" stroke="#15181D" stroke-opacity="0.18"/><line x1="72" y1="64" x2="72" y2="640" stroke="#15181D" stroke-opacity="0.18"/><line x1="120" y1="64" x2="120" y2="640" stroke="#15181D" stroke-opacity="0.18"/><line x1="168" y1="64" x2="168" y2="640" stroke="#15181D" stroke-opacity="0.18"/><line x1="216" y1="64" x2="216" y2="640" stroke="#15181D" stroke-opacity="0.18"/><line x1="264" y1="64" x2="264" y2="640" stroke="#15181D" stroke-opacity="0.18"/><line x1="312" y1="64" x2="312" y2="640" stroke="#15181D" stroke-opacity="0.18"/><line x1="360" y1="64" x2="360" y2="640" stroke="#15181D" stroke-opacity="0.18"/><line x1="408" y1="64" x2="408" y2="640" stroke="#15181D" stroke-opacity="0.18"/><line x1="456" y1="64" x2="456" y2="640" stroke="#15181D" stroke-opacity="0.18"/><line x1="504" y1="64" x2="504" y2="640" stroke="#15181D" stroke-opacity="0.18"/><line x1="552" y1="64" x2="552" y2="640" stroke="#15181D" stroke-opacity="0.18"/><line x1="600" y1="64" x2="600" y2="640" stroke="#15181D" stroke-opacity="0.18"/><line x1="648" y1="64" x2="648" y2="640" stroke="#15181D" stroke-opacity="0.18"/><line x1="696" y1="64" x2="696" y2="640" stroke="#15181D" stroke-opacity="0.18"/><line x1="24" y1="64" x2="696" y2="64" stroke="#15181D" stroke-opacity="0.18"/><line x1="24" y1="112" x2="696" y2="112" stroke="#15181D" stroke-opacity="0.18"/><line x1="24" y1="160" x2="696" y2="160" stroke="#15181D" stroke-opacity="0.18"/><line x1="24" y1="208" x2="696" y2="208" stroke="#15181D" stroke-opacity="0.18"/><line x1="24" y1="256" x2="696" y2="256" stroke="#15181D" stroke-opacity="0.18"/><line x1="24" y1="304" x2="696" y2="304" stroke="#15181D" stroke-opacity="0.18"/><line x1="24" y1="352" x2="696" y2="352" stroke="#15181D" stroke-opacity="0.18"/><line x1="24" y1="400" x2="696" y2="400" stroke="#15181D" stroke-opacity="0.18"/><line x1="24" y1="448" x2="696" y2="448" stroke="#15181D" stroke-opacity="0.18"/><line x1="24" y1="496" x2="696" y2="496" stroke="#15181D" stroke-opacity="0.18"/><line x1="24" y1="544" x2="696" y2="544" stroke="#15181D" stroke-opacity="0.18"/><line x1="24" y1="592" x2="696" y2="592" stroke="#15181D" stroke-opacity="0.18"/><line x1="24" y1="640" x2="696" y2="640" stroke="#15181D" stroke-opacity="0.18"/><rect class="m-reach" opacity="0.42" x="218" y="498" width="44" height="44" rx="4"/><rect class="m-reach" opacity="0.42" x="170" y="546" width="44" height="44" rx="4"/><rect class="m-reach" opacity="0.42" x="218" y="546" width="44" height="44" rx="4"/><rect class="m-reach" opacity="0.42" x="266" y="546" width="44" height="44" rx="4"/><rect class="m-reach" opacity="0.42" x="362" y="546" width="44" height="44" rx="4"/><rect class="m-reach" opacity="0.42" x="410" y="546" width="44" height="44" rx="4"/><rect class="m-reach" opacity="0.42" x="458" y="546" width="44" height="44" rx="4"/><rect class="m-reach" opacity="0.42" x="122" y="594" width="44" height="44" rx="4"/><rect class="m-reach" opacity="0.42" x="170" y="594" width="44" height="44" rx="4"/><rect class="m-reach" opacity="0.42" x="218" y="594" width="44" height="44" rx="4"/><rect class="m-reach" opacity="0.42" x="410" y="594" width="44" height="44" rx="4"/><rect class="m-reach" opacity="0.42" x="458" y="594" width="44" height="44" rx="4"/><rect class="m-reach" opacity="0.42" x="506" y="594" width="44" height="44" rx="4"/><rect class="ms-selected" stroke-width="2" stroke-dasharray="5 3" x="219" y="499" width="42" height="42" rx="5"/><rect class="ms-selected" stroke-width="3" x="313.5" y="593.5" width="45" height="45" rx="6"/>
<ellipse class="player-deep" cx="336.0" cy="616.0" rx="16" ry="15"/><circle class="player" cx="336.0" cy="613.0" r="16"/><path class="glyph-p" d="M336.0 601.0 L336.0 618.0 M330.0 616.0 L342.0 616.0 M336.0 618.0 L336.0 622.0"/><path class="glyph-pf" d="M334.0 604.0 L336.0 599.0 L338.0 604.0 Z"/><path class="player" d="M328.0 596.0 L328.0 588.0 L332.0 593.0 L336.0 586.0 L340.0 593.0 L344.0 588.0 L344.0 596.0 Z"/><path class="glyph-p" style="stroke-width:1.2" d="M328.0 596.0 L328.0 588.0 L332.0 593.0 L336.0 586.0 L340.0 593.0 L344.0 588.0 L344.0 596.0 Z"/><rect class="u-ink" x="320.0" y="630.0" width="32" height="6" rx="2"/><rect class="player" x="321.0" y="631.0" width="30" height="4" rx="1.5"/>
<ellipse class="player-deep" cx="288.0" cy="616.0" rx="16" ry="15"/><circle class="player" cx="288.0" cy="613.0" r="16"/><path class="glyph-p" d="M288.0 601.0 L288.0 618.0 M282.0 616.0 L294.0 616.0 M288.0 618.0 L288.0 622.0"/><path class="glyph-pf" d="M286.0 604.0 L288.0 599.0 L290.0 604.0 Z"/><rect class="u-ink" x="272.0" y="630.0" width="32" height="6" rx="2"/><rect class="player" x="273.0" y="631.0" width="30" height="4" rx="1.5"/>
<ellipse class="player-deep" cx="384.0" cy="616.0" rx="16" ry="15"/><circle class="player" cx="384.0" cy="613.0" r="16"/><path class="glyph-p" d="M375.0 622.0 L391.0 604.0"/><path class="glyph-pf" d="M389.0 606.0 L395.0 600.0 L393.0 608.0 Z"/><rect class="u-ink" x="368.0" y="630.0" width="32" height="6" rx="2"/><rect class="player" x="369.0" y="631.0" width="30" height="4" rx="1.5"/>
<ellipse class="player-deep" cx="336.0" cy="568.0" rx="16" ry="15"/><circle class="player" cx="336.0" cy="565.0" r="16"/><path class="glyph-pf" d="M336.0 552.0 C344.0 560.0 343.0 572.0 336.0 573.0 C329.0 572.0 328.0 562.0 334.0 558.0 C334.0 562.0 336.0 564.0 337.0 562.0 C338.0 558.0 336.0 555.0 336.0 552.0 Z"/><rect class="u-ink" x="320.0" y="582.0" width="32" height="6" rx="2"/><rect class="player" x="321.0" y="583.0" width="30" height="4" rx="1.5"/>
<ellipse class="u-ink" opacity="0.55" cx="336.0" cy="136.0" rx="16" ry="15"/><circle class="enemy" cx="336.0" cy="133.0" r="16"/><circle class="rim-e" cx="336.0" cy="133.0" r="14.5"/><path class="glyph-e" d="M332.0 121.0 Q346.0 132.0 332.0 143.0 M332.0 121.0 L332.0 143.0"/><path class="glyph-e" d="M327.0 132.0 L344.0 132.0"/><rect class="u-ink" x="320.0" y="150.0" width="32" height="6" rx="2"/><rect class="enemy-bone" x="321.0" y="151.0" width="30" height="4" rx="1.5"/>
<ellipse class="u-ink" opacity="0.55" cx="336.0" cy="184.0" rx="16" ry="15"/><circle class="enemy" cx="336.0" cy="181.0" r="16"/><circle class="rim-e" cx="336.0" cy="181.0" r="14.5"/><path class="glyph-e" d="M327.0 190.0 L343.0 172.0"/><path class="glyph-ef" d="M341.0 174.0 L347.0 168.0 L345.0 176.0 Z"/><path class="glyph-e" d="M337.0 178.0 L333.0 174.0 M337.0 178.0 L341.0 182.0"/><rect class="u-ink" x="320.0" y="198.0" width="32" height="6" rx="2"/><rect class="enemy-bone" x="321.0" y="199.0" width="30" height="4" rx="1.5"/>
<ellipse class="u-ink" opacity="0.55" cx="384.0" cy="184.0" rx="16" ry="15"/><circle class="enemy" cx="384.0" cy="181.0" r="16"/><circle class="rim-e" cx="384.0" cy="181.0" r="14.5"/><circle class="rim-e" cx="384.0" cy="181.0" r="19" stroke-dasharray="3 2"/><path class="glyph-e" d="M378.0 191.0 L388.0 171.0"/><path class="glyph-ef" d="M385.0 175.0 C390.0 168.0 396.0 172.0 395.0 177.0 C392.0 176.0 390.0 179.0 389.0 182.0 Z"/><path class="glyph-ef" d="M385.0 175.0 C379.0 170.0 375.0 176.0 376.0 181.0 C379.0 179.0 381.0 180.0 382.0 181.0 Z"/><rect class="u-ink" x="368.0" y="198.0" width="32" height="6" rx="2"/><rect class="enemy-bone" x="369.0" y="199.0" width="30" height="4" rx="1.5"/>
<ellipse class="u-ink" opacity="0.55" cx="336.0" cy="328.0" rx="16" ry="15"/><circle class="enemy" cx="336.0" cy="325.0" r="16"/><circle class="rim-e" cx="336.0" cy="325.0" r="14.5"/><path class="glyph-e" d="M330.0 335.0 L340.0 315.0"/><path class="glyph-ef" d="M337.0 319.0 C342.0 312.0 348.0 316.0 347.0 321.0 C344.0 320.0 342.0 323.0 341.0 326.0 Z"/><rect class="u-ink" x="320.0" y="342.0" width="32" height="6" rx="2"/><rect class="enemy-bone" x="321.0" y="343.0" width="30" height="4" rx="1.5"/>
<ellipse class="u-ink" opacity="0.55" cx="288.0" cy="328.0" rx="16" ry="15"/><circle class="enemy" cx="288.0" cy="325.0" r="16"/><circle class="rim-e" cx="288.0" cy="325.0" r="14.5"/><path class="glyph-e" d="M284.0 313.0 Q298.0 324.0 284.0 335.0 M284.0 313.0 L284.0 335.0"/><path class="glyph-e" d="M279.0 324.0 L296.0 324.0"/><rect class="u-ink" x="272.0" y="342.0" width="32" height="6" rx="2"/><rect class="enemy-bone" x="273.0" y="343.0" width="30" height="4" rx="1.5"/>
<path class="ms-selected" stroke-width="3" stroke-dasharray="1 7" stroke-linecap="round" d="M336.0 616.0 L288.0 616.0 L240.0 616.0 L240.0 568.0 L240.0 520.0"/>
<rect class="u-panel" x="716" y="64" width="540" height="260" rx="10"/><text class="ui u-muted" x="736" y="94" font-size="12" font-weight="700" text-anchor="start" letter-spacing="2">FORECAST</text><text class="ui u-muted" x="1236" y="94" font-size="12" font-weight="400" text-anchor="end" >hover a foe in reach to price a strike</text><ellipse class="player-deep" cx="766" cy="159" rx="22" ry="21"/><circle class="player" cx="766" cy="156" r="22"/><path class="glyph-p" d="M766 144 L766 161 M760 159 L772 159 M766 161 L766 165"/><path class="glyph-pf" d="M764 147 L766 142 L768 147 Z"/><path class="player" d="M758 133 L758 125 L762 130 L766 123 L770 130 L774 125 L774 133 Z"/><path class="glyph-p" style="stroke-width:1.2" d="M758 133 L758 125 L762 130 L766 123 L770 130 L774 125 L774 133 Z"/><rect class="u-ink" x="750.0" y="179" width="32" height="6" rx="2"/><rect class="player" x="751.0" y="180" width="30" height="4" rx="1.5"/><text class="ui u-text" x="804" y="144" font-size="20" font-weight="700" text-anchor="start" >Alder Fenn to 4,9</text><text class="ui u-muted" x="804" y="166" font-size="13" font-weight="400" text-anchor="start" >Plain  |  4 of 4 move  |  avoid 0</text><rect class="u-ink" x="736" y="200" width="500" height="64" rx="8"/><circle class="m-reach" cx="764" cy="232" r="9"/><text class="ui u-text" x="784" y="228" font-size="18" font-weight="700" text-anchor="start" >Safe next phase</text><text class="ui u-muted" x="784" y="248" font-size="13" font-weight="400" text-anchor="start" >No enemy can strike 4,9.</text><text class="ui u-muted" x="736" y="300" font-size="12" font-weight="400" text-anchor="start" >Nobody is awake. A group wakes when you stop within 4 of it.</text>
<rect class="u-panel" x="716" y="338" width="540" height="150" rx="10"/><text class="ui u-muted" x="736" y="366" font-size="12" font-weight="700" text-anchor="start" letter-spacing="2">UNIT</text><text class="ui u-text" x="736" y="394" font-size="18" font-weight="700" text-anchor="start" >Alder Fenn</text><text class="ui u-muted" x="856" y="394" font-size="13" font-weight="400" text-anchor="start" >Captain  |  Cadet L1  |  6,11 Plain</text><rect class="u-ink" x="736" y="406" width="200" height="14" rx="3"/><rect class="player" x="736" y="406" width="200.0" height="14" rx="3"/><text class="ui u-text" x="946" y="418" font-size="13" font-weight="700" text-anchor="start" >22 / 22</text><text class="ui u-muted" x="752" y="446" font-size="10" font-weight="700" text-anchor="middle" letter-spacing="1">STR</text><text class="ui u-text" x="752" y="466" font-size="17" font-weight="700" text-anchor="middle" >8</text><text class="ui u-muted" x="808" y="446" font-size="10" font-weight="700" text-anchor="middle" letter-spacing="1">MAG</text><text class="ui u-text" x="808" y="466" font-size="17" font-weight="700" text-anchor="middle" >0</text><text class="ui u-muted" x="864" y="446" font-size="10" font-weight="700" text-anchor="middle" letter-spacing="1">DEX</text><text class="ui u-text" x="864" y="466" font-size="17" font-weight="700" text-anchor="middle" >7</text><text class="ui u-muted" x="920" y="446" font-size="10" font-weight="700" text-anchor="middle" letter-spacing="1">SPD</text><text class="ui u-text" x="920" y="466" font-size="17" font-weight="700" text-anchor="middle" >8</text><text class="ui u-muted" x="976" y="446" font-size="10" font-weight="700" text-anchor="middle" letter-spacing="1">LCK</text><text class="ui u-text" x="976" y="466" font-size="17" font-weight="700" text-anchor="middle" >6</text><text class="ui u-muted" x="1032" y="446" font-size="10" font-weight="700" text-anchor="middle" letter-spacing="1">DEF</text><text class="ui u-text" x="1032" y="466" font-size="17" font-weight="700" text-anchor="middle" >5</text><text class="ui u-muted" x="1088" y="446" font-size="10" font-weight="700" text-anchor="middle" letter-spacing="1">RES</text><text class="ui u-text" x="1088" y="466" font-size="17" font-weight="700" text-anchor="middle" >2</text><text class="ui u-muted" x="1144" y="446" font-size="10" font-weight="700" text-anchor="middle" letter-spacing="1">CHA</text><text class="ui u-text" x="1144" y="466" font-size="17" font-weight="700" text-anchor="middle" >9</text><text class="ui u-muted" x="1200" y="446" font-size="10" font-weight="700" text-anchor="middle" letter-spacing="1">MOV</text><text class="ui u-text" x="1200" y="466" font-size="17" font-weight="700" text-anchor="middle" >4</text><text class="ui u-muted" x="1236" y="366" font-size="12" font-weight="400" text-anchor="end" >Iron Sword  |  mt 5  hit 75  range 1</text>
<rect class="u-panel" x="716" y="502" width="540" height="40" rx="10"/>
<text class="ui u-muted" x="736" y="527" font-size="12" font-weight="700" text-anchor="start" letter-spacing="2">LOG</text>
<text class="mono u-muted" x="780" y="527" font-size="12">no events yet</text>
<text class="ui u-muted" x="1236" y="527" font-size="12" font-weight="400" text-anchor="end" >L to open</text>
<rect class="m-reach" opacity="0.8" x="716" y="560" width="16" height="16" rx="3"/>
<text class="ui u-muted" x="740" y="573" font-size="13" font-weight="400" text-anchor="start" >can move</text>
<rect class="ms-selected" stroke-width="2.5" x="830" y="560" width="16" height="16" rx="3"/>
<text class="ui u-muted" x="854" y="573" font-size="13" font-weight="400" text-anchor="start" >selected</text>
<circle class="player" cx="952" cy="568" r="8"/>
<text class="ui u-muted" x="968" y="573" font-size="13" font-weight="400" text-anchor="start" >yours</text>
<circle class="enemy" cx="1042" cy="568" r="8"/><circle class="rim-e" cx="1042" cy="568" r="7"/>
<text class="ui u-muted" x="1058" y="573" font-size="13" font-weight="400" text-anchor="start" >theirs</text>
<rect class="u-panel" x="24" y="678" width="56" height="24" rx="5"/>
<text class="ui u-text" x="52.0" y="695" font-size="12" font-weight="700" text-anchor="middle" >click</text>
<text class="ui u-muted" x="88" y="695" font-size="13" font-weight="400" text-anchor="start" >select, move, strike</text>
<rect class="u-panel" x="254" y="678" width="24" height="24" rx="5"/>
<text class="ui u-text" x="266.0" y="695" font-size="12" font-weight="700" text-anchor="middle" >E</text>
<text class="ui u-muted" x="286" y="695" font-size="13" font-weight="400" text-anchor="start" >end phase</text>
<rect class="u-panel" x="375" y="678" width="56" height="24" rx="5"/>
<text class="ui u-text" x="403.0" y="695" font-size="12" font-weight="700" text-anchor="middle" >Space</text>
<text class="ui u-muted" x="439" y="695" font-size="13" font-weight="400" text-anchor="start" >next enemy act</text>
<rect class="u-panel" x="563" y="678" width="24" height="24" rx="5"/>
<text class="ui u-text" x="575.0" y="695" font-size="12" font-weight="700" text-anchor="middle" >C</text>
<text class="ui u-muted" x="595" y="695" font-size="13" font-weight="400" text-anchor="start" >skip</text>
<rect class="u-panel" x="649" y="678" width="24" height="24" rx="5"/>
<text class="ui u-text" x="661.0" y="695" font-size="12" font-weight="700" text-anchor="middle" >R</text>
<text class="ui u-muted" x="681" y="695" font-size="13" font-weight="400" text-anchor="start" >recall</text>
<rect class="u-panel" x="749" y="678" width="24" height="24" rx="5"/>
<text class="ui u-text" x="761.0" y="695" font-size="12" font-weight="700" text-anchor="middle" >L</text>
<text class="ui u-muted" x="781" y="695" font-size="13" font-weight="400" text-anchor="start" >log</text>
<rect class="u-panel" x="828" y="678" width="40" height="24" rx="5"/>
<text class="ui u-text" x="848.0" y="695" font-size="12" font-weight="700" text-anchor="middle" >Esc</text>
<text class="ui u-muted" x="876" y="695" font-size="13" font-weight="400" text-anchor="start" >clear</text>
</svg>
